<svg width="179" height="34" viewBox="0 0 179 34" fill="none" xmlns="http://www.w3.org/2000/svg">
<g clip-path="url(#clip0_218_687)">
<mask id="mask0_218_687" style="mask-type:luminance" maskUnits="userSpaceOnUse" x="-54" y="0" width="233" height="34">
<path d="M-53.7188 0H178.58V34H-53.7188V0Z" fill="white"/>
</mask>
<g mask="url(#mask0_218_687)">
<path d="M22.1343 14.3792H5.97402V9.13758H26.3343V3.89591H5.92008C5.22257 3.89209 4.53112 4.02364 3.88524 4.28305C3.23936 4.54246 2.6517 4.92465 2.15581 5.40779C1.65993 5.89092 1.26554 6.46554 0.99517 7.09882C0.724802 7.73211 0.583751 8.41164 0.580078 9.09862V14.4111C0.582809 15.0987 0.723165 15.779 0.993112 16.4131C1.26306 17.0472 1.6573 17.6227 2.15328 18.1065C2.64926 18.5904 3.23724 18.9732 3.88359 19.2331C4.52994 19.493 5.22197 19.6247 5.92008 19.6209H22.1019V24.8626H0.964848V30.1042H22.1343C23.1848 30.11 24.2134 29.8088 25.09 29.2386C25.9667 28.6685 26.6518 27.855 27.0589 26.9012C27.3294 26.268 27.4706 25.5885 27.4743 24.9015V19.589C27.4715 18.9015 27.3311 18.2212 27.0611 17.5871C26.7912 16.953 26.3969 16.3776 25.901 15.8937C25.405 15.4099 24.817 15.027 24.1707 14.7672C23.5244 14.5073 22.8324 14.3755 22.1343 14.3792ZM53.4407 3.89591H37.2193C36.167 3.88766 35.136 4.18738 34.2569 4.75708C33.3779 5.32677 32.6904 6.14076 32.2817 7.09581C32.0102 7.72987 31.8686 8.4105 31.8649 9.09862V24.9015C31.8685 25.5897 32.0102 26.2704 32.2817 26.9047C32.6903 27.8598 33.3778 28.6738 34.2569 29.2434C35.136 29.8131 36.1671 30.1127 37.2193 30.1042H53.4407C54.1382 30.1081 54.8296 29.9765 55.4755 29.7171C56.1214 29.4577 56.7091 29.0755 57.205 28.5924C57.7008 28.1092 58.0952 27.5346 58.3656 26.9013C58.636 26.2681 58.777 25.5885 58.7807 24.9015V9.09862C58.7771 8.41166 58.636 7.73215 58.3656 7.09892C58.0951 6.46569 57.7006 5.89117 57.2046 5.40821C56.7089 4.92491 56.1213 4.54259 55.4754 4.2831C54.8296 4.02361 54.1382 3.89204 53.4407 3.89591ZM53.4011 24.8626H37.2589V9.13758H53.3939L53.4011 24.8626ZM110.257 3.89591H94.4346C93.7371 3.89209 93.0457 4.02364 92.3998 4.28305C91.7539 4.54246 91.1662 4.92465 90.6704 5.40779C90.1745 5.89092 89.7801 6.46554 89.5097 7.09882C89.2393 7.73211 89.0983 8.41164 89.0946 9.09862V30.1042H94.4886V21.4945H110.239V30.1042H115.633V9.09862C115.629 8.40861 115.487 7.72611 115.215 7.09045C114.942 6.4548 114.544 5.87856 114.045 5.39494C113.545 4.91131 112.953 4.52988 112.303 4.2726C111.653 4.01533 110.957 3.88731 110.257 3.89591ZM110.217 16.2528H94.467V9.13758H110.217V16.2528ZM173.24 3.89591H157.418C156.72 3.89209 156.029 4.02364 155.383 4.28305C154.737 4.54246 154.149 4.92465 153.654 5.40779C153.158 5.89092 152.763 6.46554 152.493 7.09882C152.223 7.73211 152.082 8.41164 152.078 9.09862V30.1042H157.472V21.4945H173.186V30.1042H178.58V9.09862C178.576 8.41166 178.435 7.73215 178.165 7.09892C177.895 6.46569 177.5 5.89117 177.004 5.40821C176.003 4.4325 174.649 3.88852 173.24 3.89591ZM173.186 16.2528H157.436V9.13758H173.186V16.2528ZM141.901 24.8626H139.744L132.03 6.09175C131.766 5.44408 131.311 4.88898 130.724 4.49772C130.137 4.10646 129.445 3.89689 128.736 3.89591H123.95C123.25 3.8922 122.564 4.09331 121.979 4.47379C121.395 4.85428 120.938 5.39702 120.667 6.03331C120.487 6.45563 120.393 6.90871 120.39 7.36675V30.1042H125.784V9.13758H127.942L135.652 27.9084C135.92 28.5549 136.378 29.1078 136.968 29.4964C137.557 29.885 138.251 30.0917 138.96 30.0901H143.746C144.211 30.0925 144.672 30.0047 145.103 29.8315C145.534 29.6583 145.925 29.4032 146.256 29.0807C146.923 28.4297 147.301 27.5444 147.306 26.6193V3.89591H141.901V24.8626ZM68.9393 3.89591H63.5453V24.9015C63.549 25.59 63.6906 26.271 63.9621 26.9053C64.2336 27.5397 64.6297 28.1151 65.1275 28.5983C65.6254 29.0816 66.2151 29.4634 66.8631 29.7219C67.511 29.9803 68.2043 30.1102 68.9033 30.1042H85.0851V24.8626H68.9393V3.89591Z" fill="#FEFEFE"/>
</g>
</g>
<defs>
<clipPath id="clip0_218_687">
<rect width="178" height="34" fill="white" transform="translate(0.580078)"/>
</clipPath>
</defs>
</svg>
