<svg width="144" height="43" viewBox="0 0 144 43" fill="none" xmlns="http://www.w3.org/2000/svg">
<g clip-path="url(#clip0_218_662)">
<path d="M21.4681 0C9.63029 0 0 9.64461 0 21.5C0 33.3554 9.63029 43 21.4681 43C33.3059 43 42.9361 33.3554 42.9361 21.5C42.9361 9.64461 33.3059 0 21.4681 0ZM40.5197 21.5C40.5197 22.8716 40.3716 24.209 40.0952 25.4987L34.0067 20.828L27.5522 22.2783L32.9554 18.1235L35.8063 8.95824C38.7378 12.3148 40.5197 16.7021 40.5197 21.5011V21.5ZM2.41752 21.5C2.41752 19.5582 2.71045 17.684 3.251 15.9183L8.88856 21.9318L18.0656 24.933L12.9255 27.0042L2.65518 24.5034C2.50043 23.5248 2.41752 22.5218 2.41752 21.5011V21.5ZM17.671 20.7583C16.9602 19.2449 17.0542 17.2943 17.9485 14.9429C20.4246 15.3681 22.1501 16.2792 23.0897 17.6608C24.1498 19.2206 24.058 21.1646 23.89 22.2506C23.89 22.2506 23.8281 22.5805 23.7154 23.0665C23.4103 23.1406 23.1096 23.2414 22.8233 23.4052C22.5105 23.5835 22.2507 23.8148 22.0186 24.0661C21.5819 23.9233 21.2094 23.7827 21.2094 23.7827C20.1847 23.3731 18.4702 22.4631 17.6699 20.7583H17.671ZM24.0227 25.5075C24.4958 25.2374 25.1015 25.4023 25.3713 25.8762C25.641 26.35 25.4763 26.9566 25.0032 27.2268C24.53 27.4969 23.9243 27.3319 23.6546 26.8581C23.3848 26.3843 23.5484 25.7776 24.0227 25.5075ZM23.3848 29.5704C24.2846 29.8881 25.3071 29.8405 26.2014 29.3302C27.0957 28.8187 27.6561 27.9607 27.8407 27.0231L31.0232 27.9873L34.0575 35.8053C32.2458 37.4072 30.1289 38.6692 27.8054 39.4918L22.5768 32.8882L23.3871 29.5715L23.3848 29.5704ZM26.3551 3.05988C29.1683 3.80825 31.7262 5.18874 33.8718 7.0364L30.8717 16.6733L26.4767 20.052L28.5637 10.6122L26.3551 3.05988ZM32.8471 26.0101L28.2188 24.6086L33.4341 23.4373L39.3801 27.9984C38.5864 30.1848 37.4025 32.183 35.9157 33.9156L32.8471 26.0101ZM21.4681 2.42112C22.2197 2.42112 22.9604 2.46983 23.6888 2.55507L26.0688 10.6963L24.8893 16.0301C23.5197 14.2068 21.0038 12.6846 16.4882 12.327C16.4882 12.327 16.4727 12.3226 16.4595 12.3303C16.4528 12.3336 16.4462 12.3414 16.4429 12.3525C14.4465 16.443 14.4819 19.3922 15.3629 21.5011L10.2294 19.8217L4.21933 13.4119C7.26251 6.9257 13.8485 2.42112 21.4681 2.42112ZM3.26758 27.1426L13.1112 29.5372L19.4308 26.9921L14.902 31.8199L15.8515 39.732C9.86132 37.8777 5.12576 33.1384 3.26758 27.1426ZM18.3564 40.3209L17.4378 32.6535L21.0967 28.7523L19.9481 33.4561L25.2795 40.1958C24.0481 40.4471 22.7736 40.58 21.4692 40.58C20.4091 40.58 19.3689 40.4892 18.3564 40.3209Z" fill="url(#paint0_linear_218_662)"/>
<path d="M55.1584 31.8487C54.8953 31.8487 52.9133 31.7834 51.516 29.9258L50.9092 29.1198L59.1411 29.1298C60.514 29.1143 62.0649 28.9649 63.6622 27.9707C64.1121 27.6906 64.4194 27.4117 64.6582 27.0209C64.9125 26.6024 65.0053 26.3434 65.0164 25.9415C65.0307 25.4046 64.9113 25.0337 64.6637 24.6939C64.4095 24.3451 64.2404 24.2377 63.9132 24.0451C63.775 23.971 63.5351 23.8647 63.2333 23.7451C62.9979 23.6521 62.6917 23.5625 62.3026 23.4484C61.9002 23.33 61.3442 23.1838 60.7672 23.0455C60.5981 23.0045 60.0785 22.8827 59.4164 22.7277C57.2454 22.2185 55.2755 21.7557 55.018 21.6816C54.609 21.562 54.2895 21.4535 54.0397 21.3495C53.7534 21.2288 53.4328 21.0605 53.2681 20.972C52.7397 20.6897 52.1727 20.1815 51.7548 19.6147C51.3049 19.0047 51.0474 18.1324 51.0474 17.2213C51.0474 16.5316 51.2463 15.7799 51.5945 15.1599C51.8886 14.6363 52.4391 13.9112 53.3997 13.4296C54.1845 13.009 55.1307 12.6779 55.9852 12.5274C56.9779 12.3536 58.007 12.265 59.0461 12.265H66.7629L66.46 12.9669C65.7017 14.7204 64.121 15.0515 63.366 14.9828H59.2329C58.3198 14.9828 57.4476 15.0515 56.6396 15.1876C55.8282 15.3249 55.27 15.4976 54.8301 15.7467C54.1016 16.1596 53.8551 16.546 53.8551 17.2788C53.8551 17.5822 53.9546 18.325 54.8721 18.697C55.1075 18.7922 56.0582 19.0944 56.4484 19.1918C56.654 19.2439 57.9031 19.5295 59.1467 19.8129C60.3383 20.0852 61.5233 20.3564 61.7897 20.4206C62.3125 20.548 62.9205 20.7096 63.3781 20.8413C63.8502 20.9797 64.2779 21.1635 64.5974 21.3074C64.9014 21.4447 65.2463 21.6351 65.6243 21.8753C66.1461 22.213 66.6015 22.6657 67.0603 23.3045C67.5278 23.9566 67.8064 24.8931 67.8064 25.812C67.8064 26.6998 67.5079 27.7272 67.0459 28.4301C66.6092 29.0944 65.9858 29.7044 65.2419 30.1937C64.5134 30.6963 63.6003 31.1059 62.5347 31.4037C61.4901 31.6937 60.3107 31.8465 59.1212 31.8465H55.1838C55.1838 31.8465 55.1705 31.8465 55.1561 31.8465L55.1584 31.8487Z" fill="url(#paint1_linear_218_662)"/>
<path d="M89.8597 31.8476H87.1536L87.1426 12.2351H89.8364L89.8597 31.8476Z" fill="url(#paint2_linear_218_662)"/>
<path d="M69.4375 31.8587L69.4452 12.2507L69.925 12.2186C75.3061 11.8543 78.1271 11.9307 78.1547 11.9318C80.3025 11.9318 82.332 12.7588 83.7094 14.2024C84.2554 14.7958 84.7164 15.5353 85.0502 16.3456C85.3719 17.1327 85.5488 18.1158 85.5488 19.1133C85.5488 19.9435 85.3863 20.9034 85.1011 21.7469C84.8258 22.5695 84.2919 23.4407 83.5988 24.2002C83.0406 24.7913 82.2315 25.3404 81.314 25.7511C80.4252 26.1497 79.3298 26.3589 78.1481 26.3589L72.117 26.3666L72.1325 31.8465L69.4386 31.8598L69.4375 31.8587ZM72.1137 23.7573H78.1238C78.8732 23.7573 79.437 23.6632 80.0715 23.4319C80.7447 23.185 81.1846 22.8983 81.6378 22.4067C82.0723 21.9562 82.3199 21.5853 82.5299 21.0761C82.7709 20.4893 82.8881 19.8506 82.8881 19.121C82.8881 18.4856 82.7919 17.9221 82.5852 17.3497C82.384 16.7918 82.1408 16.3988 81.7197 15.9482C81.3062 15.5087 80.8442 15.1899 80.2229 14.9164C79.6227 14.6519 78.9926 14.5389 78.1149 14.5389C78.084 14.5367 75.305 14.5334 72.1137 14.736V23.7573Z" fill="url(#paint3_linear_218_662)"/>
<path d="M98.2049 11.9041C100.008 11.9041 101.608 12.1344 102.964 12.5894C104.334 13.0499 105.498 13.7141 106.424 14.5632C107.355 15.419 108.06 16.4696 108.517 17.6873C108.967 18.8885 109.196 20.3819 109.196 21.8365C109.196 23.2912 108.968 24.8455 108.517 26.0378C108.061 27.2456 107.357 28.2929 106.425 29.1486C105.5 29.9988 104.336 30.663 102.965 31.1236C101.611 31.5786 100.009 31.8088 98.2061 31.8088H91.6123V12.1975C95.4923 11.893 98.2061 11.903 98.2061 11.903L98.2049 11.9041ZM94.3239 14.8411V29.1641H98.2547C99.7426 29.1641 101.025 28.987 102.068 28.6394C103.094 28.2973 103.944 27.8069 104.595 27.1847C105.243 26.567 105.724 25.8208 106.022 24.9684C106.327 24.0949 106.483 22.8993 106.483 21.8365C106.483 20.7738 106.329 19.6368 106.022 18.7545C105.724 17.8954 105.244 17.146 104.596 16.5271C103.944 15.9039 103.093 15.4146 102.068 15.0725C101.024 14.7238 99.7415 14.5477 98.2547 14.5477C98.2547 14.5477 96.706 14.5599 94.3239 14.8411Z" fill="url(#paint4_linear_218_662)"/>
<path d="M123.832 21.5166C125.28 20.6697 125.866 19.5161 125.826 17.5976C125.753 14.1082 122.948 12.1598 117.537 12.1598C114.127 12.1598 111.261 12.9403 108.773 14.5455L108.568 14.6783C109.142 15.4068 109.612 16.2171 109.95 17.1172C109.955 17.1327 109.961 17.1504 109.967 17.167L109.982 17.1935L110.297 16.9943C112.52 15.5894 114.931 14.9064 117.665 14.9064C119.68 14.9064 123.059 15.295 123.059 17.8965C123.059 19.9423 120.876 20.3719 119.045 20.3719H113.1V23.1185H119.776C122.327 23.1185 123.791 24.0705 123.791 25.7289C123.791 27.7847 121.598 28.9637 117.774 28.9637C114.732 28.9637 111.87 28.1423 109.845 26.712C109.477 27.612 108.989 28.4323 108.377 29.1541C110.619 30.7715 113.991 31.6937 117.728 31.6937C123.57 31.6937 126.538 29.4508 126.559 25.9182C126.571 23.8325 125.847 22.3457 123.834 21.5166H123.832Z" fill="url(#paint5_linear_218_662)"/>
<path d="M138.7 25.4466C139.16 25.3503 139.593 25.2186 139.982 25.0448C140.852 24.6551 141.621 24.1326 142.151 23.5713C142.809 22.8517 143.315 22.0247 143.577 21.2432C143.845 20.445 144 19.5361 144 18.749C144 17.8025 143.832 16.8703 143.527 16.1231C143.211 15.3537 142.771 14.6507 142.254 14.0883C140.947 12.72 139.028 11.9351 136.99 11.9351C136.964 11.9351 133.972 11.8609 128.783 12.2041L128.255 12.2395L128.247 31.7635V31.8498L130.942 31.8376L130.928 25.6304L133.549 25.6271C134.485 25.6647 136.084 25.9304 137.149 27.6231L139.496 31.3483C139.496 31.3483 140.513 33.0189 142.864 33.0189L143.799 33.0144L139.711 26.6544C139.388 26.1817 139.048 25.7865 138.701 25.4477L138.7 25.4466ZM130.924 23.0133V14.7293C133.479 14.5212 135.448 14.5311 136.951 14.55C137.76 14.5599 138.341 14.654 138.891 14.8965C139.463 15.1478 139.886 15.44 140.265 15.843C140.652 16.2559 140.874 16.6157 141.059 17.1272C141.249 17.6541 141.337 18.1722 141.337 18.7567C141.337 19.3767 141.232 19.949 141.007 20.5579C140.446 22.0723 139.144 22.5904 138.758 22.7133C138.189 22.8938 137.666 23.0144 136.959 23.0144L130.924 23.0133Z" fill="url(#paint6_linear_218_662)"/>
</g>
<defs>
<linearGradient id="paint0_linear_218_662" x1="-1.19715" y1="16.1596" x2="120.859" y2="44.8354" gradientUnits="userSpaceOnUse">
<stop stop-color="#4EE1F9"/>
<stop offset="0.515" stop-color="#86ED82"/>
<stop offset="1" stop-color="#BBF910"/>
</linearGradient>
<linearGradient id="paint1_linear_218_662" x1="0.740375" y1="7.91321" x2="122.795" y2="36.589" gradientUnits="userSpaceOnUse">
<stop stop-color="#4EE1F9"/>
<stop offset="0.515" stop-color="#86ED82"/>
<stop offset="1" stop-color="#BBF910"/>
</linearGradient>
<linearGradient id="paint2_linear_218_662" x1="2.19883" y1="1.70707" x2="124.253" y2="30.3829" gradientUnits="userSpaceOnUse">
<stop stop-color="#4EE1F9"/>
<stop offset="0.515" stop-color="#86ED82"/>
<stop offset="1" stop-color="#BBF910"/>
</linearGradient>
<linearGradient id="paint3_linear_218_662" x1="1.48495" y1="4.74155" x2="123.54" y2="33.4174" gradientUnits="userSpaceOnUse">
<stop stop-color="#4EE1F9"/>
<stop offset="0.515" stop-color="#86ED82"/>
<stop offset="1" stop-color="#BBF910"/>
</linearGradient>
<linearGradient id="paint4_linear_218_662" x1="2.62943" y1="-0.131738" x2="124.685" y2="28.5452" gradientUnits="userSpaceOnUse">
<stop stop-color="#4EE1F9"/>
<stop offset="0.515" stop-color="#86ED82"/>
<stop offset="1" stop-color="#BBF910"/>
</linearGradient>
<linearGradient id="paint5_linear_218_662" x1="3.74155" y1="-4.86109" x2="125.796" y2="23.8158" gradientUnits="userSpaceOnUse">
<stop stop-color="#4EE1F9"/>
<stop offset="0.515" stop-color="#86ED82"/>
<stop offset="1" stop-color="#BBF910"/>
</linearGradient>
<linearGradient id="paint6_linear_218_662" x1="4.57105" y1="-8.38922" x2="126.626" y2="20.2866" gradientUnits="userSpaceOnUse">
<stop stop-color="#4EE1F9"/>
<stop offset="0.515" stop-color="#86ED82"/>
<stop offset="1" stop-color="#BBF910"/>
</linearGradient>
<clipPath id="clip0_218_662">
<rect width="144" height="43" fill="white"/>
</clipPath>
</defs>
</svg>
