<svg width="238" height="71" viewBox="0 0 238 71" fill="none" xmlns="http://www.w3.org/2000/svg">
<g clip-path="url(#clip0_218_931)">
<path d="M35.4819 0C15.9167 0 0 15.9248 0 35.5C0 55.0752 15.9167 71 35.4819 71C55.0472 71 70.9639 55.0752 70.9639 35.5C70.9639 15.9248 55.0472 0 35.4819 0ZM66.9701 35.5C66.9701 37.7648 66.7253 39.9729 66.2685 42.1024L56.2055 34.3905L45.5377 36.785L54.468 29.9249L59.1798 14.7915C64.025 20.3338 66.9701 27.5778 66.9701 35.5018V35.5ZM3.99562 35.5C3.99562 32.2938 4.47978 29.1992 5.37317 26.2836L14.6908 36.2129L29.8585 41.1684L21.363 44.5884L4.38843 40.4591C4.13265 38.8433 3.99562 37.1872 3.99562 35.5018V35.5ZM29.2062 34.2753C28.0315 31.7765 28.1868 28.5557 29.6648 24.6732C33.7573 25.3752 36.6092 26.8795 38.1621 29.1608C39.9142 31.7363 39.7626 34.9461 39.4849 36.7393C39.4849 36.7393 39.3826 37.284 39.1962 38.0865C38.692 38.209 38.195 38.3753 37.7218 38.6458C37.2048 38.9401 36.7755 39.3222 36.3918 39.7371C35.6701 39.5013 35.0544 39.2692 35.0544 39.2692C33.3608 38.5928 30.5272 37.0903 29.2044 34.2753H29.2062ZM39.7041 42.1171C40.4861 41.6711 41.4873 41.9434 41.933 42.7258C42.3788 43.5081 42.1066 44.5098 41.3247 44.9558C40.5427 45.4018 39.5415 45.1295 39.0957 44.3471C38.6499 43.5648 38.9203 42.5631 39.7041 42.1171ZM38.6499 48.8255C40.1371 49.3501 41.8271 49.2715 43.3051 48.4289C44.7831 47.5844 45.7094 46.1677 46.0145 44.6195L51.2744 46.2116L56.2895 59.1204C53.2951 61.7654 49.7964 63.8492 45.9561 65.2073L37.3144 54.3038L38.6536 48.8274L38.6499 48.8255ZM43.5591 5.05237C48.2088 6.28804 52.4364 8.56745 55.9826 11.6182L51.0241 27.5303L43.76 33.1091L47.2094 17.5224L43.5591 5.05237ZM54.289 42.9469L46.6394 40.6328L55.2591 38.6989L65.0865 46.2299C63.7747 49.84 61.818 53.1394 59.3607 56.0001L54.289 42.9469ZM35.4819 3.99766C36.7243 3.99766 37.9484 4.07809 39.1524 4.21884L43.0859 17.6613L41.1365 26.4683C38.8728 23.4577 34.7146 20.9443 27.2514 20.3539C27.2514 20.3539 27.2258 20.3466 27.2039 20.3594C27.1929 20.3648 27.1819 20.3776 27.1765 20.3959C23.8769 27.1501 23.9354 32.0196 25.3915 35.5018L16.907 32.7289L6.97362 22.1452C12.0033 11.4355 22.8885 3.99766 35.4819 3.99766ZM5.40058 44.8169L21.6699 48.7707L32.1148 44.5683L24.6296 52.5399L26.199 65.604C16.2986 62.5422 8.47175 54.7169 5.40058 44.8169ZM30.339 66.5764L28.8207 53.9163L34.8681 47.4747L32.9698 55.2415L41.7814 66.3699C39.7461 66.7848 37.6396 67.0042 35.4838 67.0042C33.7317 67.0042 32.0125 66.8543 30.339 66.5764Z" fill="url(#paint0_linear_218_931)"/>
<path d="M91.1645 52.5876C90.7297 52.5876 87.4539 52.4797 85.1446 49.4125L84.1416 48.0818L97.7472 48.0982C100.016 48.0726 102.58 47.8259 105.22 46.1844C105.963 45.7219 106.471 45.2613 106.866 44.616C107.286 43.9251 107.439 43.4973 107.458 42.8338C107.481 41.9473 107.284 41.3349 106.875 40.7737C106.455 40.198 106.175 40.0206 105.634 39.7026C105.406 39.5801 105.009 39.4046 104.511 39.2072C104.122 39.0537 103.615 38.9056 102.972 38.7173C102.307 38.5217 101.388 38.2805 100.435 38.052C100.155 37.9843 99.2965 37.7833 98.2021 37.5274C94.6139 36.6865 91.3582 35.9224 90.9325 35.8C90.2565 35.6026 89.7285 35.4234 89.3156 35.2516C88.8424 35.0524 88.3126 34.7745 88.0404 34.6283C87.1671 34.1622 86.2298 33.3232 85.5392 32.3873C84.7957 31.3801 84.37 29.9397 84.37 28.4353C84.37 27.2965 84.6988 26.0553 85.2743 25.0317C85.7603 24.1671 86.6702 22.9698 88.2578 22.1747C89.555 21.4801 91.1189 20.9335 92.5311 20.6849C94.1718 20.3979 95.8727 20.2517 97.5901 20.2517H110.344L109.844 21.4106C108.59 24.306 105.978 24.8526 104.73 24.7392H97.8988C96.3897 24.7392 94.9482 24.8526 93.6127 25.0774C92.2717 25.3041 91.3491 25.5892 90.6219 26.0005C89.4179 26.6823 89.0105 27.3203 89.0105 28.5303C89.0105 29.0312 89.175 30.2577 90.6914 30.8719C91.0805 31.0291 92.6517 31.5281 93.2966 31.689C93.6365 31.7749 95.701 32.2465 97.7563 32.7145C99.7258 33.1641 101.684 33.612 102.125 33.718C102.989 33.9282 103.994 34.1951 104.75 34.4126C105.53 34.6411 106.237 34.9445 106.765 35.1821C107.268 35.4088 107.838 35.7232 108.462 36.1199C109.325 36.6774 110.078 37.425 110.836 38.4797C111.609 39.5564 112.069 41.1028 112.069 42.6199C112.069 44.0859 111.576 45.7822 110.812 46.943C110.09 48.0397 109.06 49.0469 107.83 49.8548C106.626 50.6847 105.117 51.361 103.356 51.8528C101.63 52.3317 99.6801 52.5839 97.7143 52.5839H91.2066C91.2066 52.5839 91.1846 52.5839 91.1609 52.5839L91.1645 52.5876Z" fill="url(#paint1_linear_218_931)"/>
<path d="M148.517 52.5855H144.045L144.026 20.2021H148.479L148.517 52.5855Z" fill="url(#paint2_linear_218_931)"/>
<path d="M114.766 52.6039L114.778 20.2279L115.571 20.1748C124.465 19.5735 129.128 19.6996 129.173 19.7014C132.723 19.7014 136.077 21.0669 138.354 23.4505C139.256 24.4302 140.018 25.6513 140.57 26.9893C141.102 28.289 141.394 29.9122 141.394 31.5591C141.394 32.9301 141.125 34.5149 140.654 35.9077C140.199 37.2659 139.317 38.7045 138.171 39.9584C137.249 40.9345 135.911 41.8412 134.395 42.5193C132.926 43.1774 131.115 43.5228 129.162 43.5228L119.194 43.5356L119.22 52.5838L114.767 52.6058L114.766 52.6039ZM119.189 39.2272H129.122C130.361 39.2272 131.293 39.0719 132.341 38.6898C133.454 38.2822 134.181 37.8088 134.93 36.9972C135.648 36.2532 136.057 35.6409 136.404 34.8C136.803 33.8312 136.996 32.7765 136.996 31.5719C136.996 30.5227 136.837 29.5923 136.496 28.6472C136.163 27.726 135.761 27.0771 135.065 26.3331C134.382 25.6074 133.618 25.081 132.592 24.6295C131.599 24.1926 130.558 24.0062 129.107 24.0062C129.056 24.0025 124.463 23.997 119.189 24.3315V39.2272Z" fill="url(#paint3_linear_218_931)"/>
<path d="M162.311 19.6557C165.291 19.6557 167.937 20.0359 170.176 20.7872C172.442 21.5476 174.366 22.6443 175.895 24.0464C177.435 25.4593 178.599 27.194 179.355 29.2047C180.099 31.188 180.477 33.6539 180.477 36.0558C180.477 38.4577 180.101 41.0241 179.355 42.9927C178.601 44.987 177.437 46.7162 175.897 48.1292C174.368 49.533 172.444 50.6298 170.178 51.3902C167.94 52.1415 165.293 52.5217 162.313 52.5217H151.415V20.1401C157.828 19.6374 162.313 19.6539 162.313 19.6539L162.311 19.6557ZM155.897 24.5052V48.1548H162.393C164.853 48.1548 166.972 47.8623 168.697 47.2883C170.392 46.7235 171.797 45.9137 172.873 44.8865C173.944 43.8665 174.738 42.6345 175.232 41.227C175.736 39.7847 175.994 37.8106 175.994 36.0558C175.994 34.301 175.738 32.4237 175.232 30.9669C174.738 29.5484 173.945 28.3109 172.875 27.2891C171.797 26.26 170.39 25.452 168.697 24.8872C166.97 24.3114 164.851 24.0208 162.393 24.0208C162.393 24.0208 159.834 24.0409 155.897 24.5052Z" fill="url(#paint4_linear_218_931)"/>
<path d="M204.666 35.5274C207.06 34.1291 208.028 32.2244 207.962 29.0566C207.841 23.295 203.206 20.0779 194.263 20.0779C188.627 20.0779 183.89 21.3666 179.777 24.017L179.439 24.2364C180.387 25.4392 181.164 26.7772 181.723 28.2633C181.732 28.2889 181.741 28.3181 181.75 28.3456L181.776 28.3894L182.297 28.0604C185.971 25.7408 189.955 24.6129 194.473 24.6129C197.804 24.6129 203.389 25.2545 203.389 29.5502C203.389 32.9281 199.781 33.6374 196.755 33.6374H186.93V38.1724H197.963C202.18 38.1724 204.599 39.7445 204.599 42.4827C204.599 45.8771 200.974 47.8239 194.654 47.8239C189.626 47.8239 184.896 46.4675 181.549 44.1059C180.941 45.592 180.135 46.9465 179.123 48.1383C182.828 50.8088 188.402 52.3315 194.578 52.3315C204.233 52.3315 209.139 48.6281 209.173 42.7953C209.193 39.3515 207.997 36.8966 204.67 35.5274H204.666Z" fill="url(#paint5_linear_218_931)"/>
<path d="M229.239 42.0167C229.999 41.8577 230.715 41.6401 231.358 41.3532C232.796 40.7097 234.068 39.847 234.943 38.9202C236.03 37.7321 236.867 36.3666 237.3 35.0761C237.744 33.7582 237.999 32.2574 237.999 30.9578C237.999 29.3949 237.722 27.8558 237.217 26.622C236.695 25.3516 235.968 24.1908 235.113 23.2623C232.953 21.0029 229.782 19.707 226.413 19.707C226.371 19.707 221.425 19.5845 212.849 20.1511L211.976 20.2096L211.963 52.4468V52.5894L216.417 52.5693L216.393 42.3201L220.725 42.3146C222.273 42.3768 224.916 42.8155 226.676 45.6104L230.554 51.7613C230.554 51.7613 232.235 54.5197 236.121 54.5197L237.667 54.5124L230.911 44.011C230.377 43.2304 229.814 42.5779 229.241 42.0185L229.239 42.0167ZM216.388 37.9989V24.3206C220.61 23.977 223.864 23.9934 226.349 24.0245C227.686 24.0409 228.645 24.1963 229.555 24.5966C230.5 25.0116 231.199 25.4941 231.826 26.1595C232.465 26.8413 232.833 27.4354 233.138 28.2799C233.452 29.15 233.598 30.0054 233.598 30.9706C233.598 31.9942 233.425 32.9393 233.052 33.9446C232.126 36.4452 229.973 37.3007 229.336 37.5036C228.395 37.8015 227.531 38.0008 226.361 38.0008L216.388 37.9989Z" fill="url(#paint6_linear_218_931)"/>
</g>
<defs>
<linearGradient id="paint0_linear_218_931" x1="-1.97863" y1="26.6821" x2="199.732" y2="74.1184" gradientUnits="userSpaceOnUse">
<stop stop-color="#4EE1F9"/>
<stop offset="0.515" stop-color="#86ED82"/>
<stop offset="1" stop-color="#BBF910"/>
</linearGradient>
<linearGradient id="paint1_linear_218_931" x1="1.22372" y1="13.0662" x2="202.932" y2="60.5024" gradientUnits="userSpaceOnUse">
<stop stop-color="#4EE1F9"/>
<stop offset="0.515" stop-color="#86ED82"/>
<stop offset="1" stop-color="#BBF910"/>
</linearGradient>
<linearGradient id="paint2_linear_218_931" x1="3.63323" y1="2.81865" x2="205.342" y2="50.2549" gradientUnits="userSpaceOnUse">
<stop stop-color="#4EE1F9"/>
<stop offset="0.515" stop-color="#86ED82"/>
<stop offset="1" stop-color="#BBF910"/>
</linearGradient>
<linearGradient id="paint3_linear_218_931" x1="2.45516" y1="7.82909" x2="204.164" y2="55.2653" gradientUnits="userSpaceOnUse">
<stop stop-color="#4EE1F9"/>
<stop offset="0.515" stop-color="#86ED82"/>
<stop offset="1" stop-color="#BBF910"/>
</linearGradient>
<linearGradient id="paint4_linear_218_931" x1="4.34611" y1="-0.217428" x2="206.056" y2="47.2206" gradientUnits="userSpaceOnUse">
<stop stop-color="#4EE1F9"/>
<stop offset="0.515" stop-color="#86ED82"/>
<stop offset="1" stop-color="#BBF910"/>
</linearGradient>
<linearGradient id="paint5_linear_218_931" x1="6.18398" y1="-8.02636" x2="207.892" y2="39.4117" gradientUnits="userSpaceOnUse">
<stop stop-color="#4EE1F9"/>
<stop offset="0.515" stop-color="#86ED82"/>
<stop offset="1" stop-color="#BBF910"/>
</linearGradient>
<linearGradient id="paint6_linear_218_931" x1="7.55391" y1="-13.8518" x2="209.262" y2="33.5845" gradientUnits="userSpaceOnUse">
<stop stop-color="#4EE1F9"/>
<stop offset="0.515" stop-color="#86ED82"/>
<stop offset="1" stop-color="#BBF910"/>
</linearGradient>
<clipPath id="clip0_218_931">
<rect width="238" height="71" fill="white"/>
</clipPath>
</defs>
</svg>
