<?xml version="1.0" standalone="no"?>
<!DOCTYPE svg PUBLIC "-//W3C//DTD SVG 20010904//EN"
 "http://www.w3.org/TR/2001/REC-SVG-20010904/DTD/svg10.dtd">
<svg version="1.0" xmlns="http://www.w3.org/2000/svg"
 width="700.000000pt" height="700.000000pt" viewBox="0 0 700.000000 700.000000"
 preserveAspectRatio="xMidYMid meet">
<metadata>
Created by potrace 1.14, written by Peter Selinger 2001-2017
</metadata>
<g transform="translate(0.000000,700.000000) scale(0.100000,-0.100000)"
fill="#000000" stroke="none">
<path d="M3279 6996 c-2 -2 -42 -7 -89 -10 -47 -4 -96 -8 -110 -10 -14 -2 -46
-7 -71 -10 -25 -4 -57 -9 -70 -11 -13 -2 -41 -6 -61 -9 -102 -15 -325 -72
-462 -118 -322 -107 -607 -246 -881 -432 -49 -33 -92 -63 -95 -66 -3 -3 -41
-32 -84 -65 -192 -145 -406 -356 -581 -570 -312 -386 -563 -889 -671 -1345
-50 -213 -72 -349 -91 -550 -16 -167 -9 -567 12 -717 10 -67 14 -99 20 -148 4
-27 10 -66 15 -85 5 -19 12 -48 14 -65 28 -156 113 -435 188 -615 234 -561
584 -1024 1077 -1423 88 -71 361 -257 378 -257 3 0 14 -6 22 -14 30 -25 248
-135 392 -197 181 -77 397 -149 555 -184 49 -11 171 -37 184 -40 13 -2 85 -13
205 -30 190 -27 671 -26 855 1 240 36 381 66 565 120 1132 338 2029 1246 2358
2389 41 141 83 339 102 475 3 25 8 56 10 70 26 174 27 700 1 837 -2 10 -7 41
-11 68 -10 76 -12 85 -23 150 -19 105 -22 118 -57 250 -90 343 -218 641 -418
970 -33 54 -117 177 -161 235 -383 505 -857 880 -1421 1125 -16 7 -47 21 -69
30 -108 48 -426 148 -541 170 -147 29 -245 46 -316 55 -46 6 -100 13 -119 16
-39 5 -546 14 -551 10z m456 -400 c61 -5 113 -11 117 -15 6 -5 75 -230 98
-316 4 -16 40 -139 79 -272 231 -787 214 -721 201 -788 -15 -74 -14 -69 -40
-189 -12 -54 -23 -106 -25 -115 -2 -12 -78 -347 -89 -396 -2 -5 -6 -31 -11
-57 -4 -27 -11 -48 -15 -48 -4 0 -19 15 -33 33 -39 52 -141 146 -224 208 -203
153 -561 286 -868 324 -27 4 -57 8 -65 10 -8 2 -53 7 -100 10 l-85 6 -49 -113
c-151 -346 -216 -613 -216 -888 -1 -160 20 -295 64 -416 13 -35 21 -66 19 -68
-3 -3 -22 1 -42 9 -20 8 -205 69 -411 136 -327 107 -379 126 -404 153 -40 44
-237 253 -283 302 -21 22 -92 98 -158 169 -66 70 -135 144 -154 164 -36 39
-251 268 -291 311 -62 66 -62 65 -48 96 30 71 138 259 210 367 449 680 1152
1158 1948 1326 107 23 134 28 205 37 28 3 61 7 75 9 14 2 75 7 135 11 61 3
111 7 112 8 5 4 250 -2 348 -8z m677 -130 c266 -81 538 -210 787 -374 91 -60
239 -170 285 -213 l28 -26 -18 -59 c-9 -32 -19 -63 -20 -69 -2 -5 -28 -91 -59
-190 -88 -279 -105 -335 -125 -400 -10 -33 -61 -197 -113 -365 -53 -168 -108
-344 -122 -392 -24 -76 -33 -92 -69 -121 -50 -41 -647 -500 -663 -510 -11 -7
-4 45 16 122 6 20 12 47 15 61 2 14 40 187 84 385 45 198 83 371 86 385 3 14
12 59 21 100 9 41 18 82 20 90 2 8 20 89 40 180 20 91 39 174 41 184 3 19 -22
112 -173 621 -19 66 -39 134 -43 150 -11 41 -129 447 -135 463 -6 16 -13 17
117 -22z m1454 -968 c76 -85 231 -305 313 -445 107 -185 225 -453 276 -628 10
-33 24 -80 32 -104 16 -50 69 -313 78 -386 4 -27 8 -61 11 -75 27 -165 22
-585 -10 -794 -3 -17 -7 -49 -11 -71 -3 -22 -11 -64 -18 -92 l-12 -53 -495
380 c-285 219 -501 378 -510 376 -23 -6 -73 -17 -96 -22 -12 -2 -82 -18 -155
-35 -74 -17 -141 -32 -149 -34 -8 -2 -141 -31 -295 -65 -154 -33 -290 -65
-302 -70 -48 -20 -18 10 107 105 188 144 236 181 351 270 57 44 167 128 244
187 l140 108 58 187 c32 104 88 283 124 398 106 344 109 353 168 540 31 99 68
219 82 268 14 48 29 87 33 87 4 0 20 -15 36 -32z m-2886 -942 c19 -3 78 -16
131 -30 403 -105 651 -308 748 -613 20 -61 23 -78 39 -198 14 -104 5 -271 -20
-388 -5 -27 -11 -55 -12 -64 -2 -8 -27 -23 -61 -35 -67 -22 -148 -72 -189
-115 l-29 -31 -86 30 c-221 77 -423 217 -542 373 -52 69 -107 183 -131 274
-23 87 -33 293 -18 381 5 30 12 73 15 95 7 46 26 117 61 230 26 80 41 108 53
101 3 -2 22 -7 41 -10z m-2194 -421 c72 -77 164 -176 205 -219 41 -44 88 -94
104 -111 94 -100 278 -296 311 -332 36 -40 51 -46 219 -102 190 -62 880 -287
1150 -375 98 -32 154 -55 146 -60 -7 -5 -193 -81 -415 -170 l-402 -162 -275
67 c-150 38 -285 71 -299 73 -14 3 -61 14 -105 25 -92 24 -618 152 -842 206
-119 29 -153 41 -154 53 -1 10 -3 26 -4 37 -2 11 -5 40 -9 65 -25 194 -26 607
-2 736 2 10 7 44 11 74 4 30 9 64 11 75 2 11 6 32 9 48 5 23 29 137 40 187 14
64 29 118 38 134 11 22 -6 37 263 -249z m4842 -1092 c99 -76 192 -148 208
-160 139 -106 570 -437 572 -439 12 -9 -139 -341 -214 -471 -71 -124 -208
-326 -275 -408 -56 -68 -68 -79 -73 -74 -4 3 -51 120 -105 260 -54 140 -165
425 -246 635 l-148 380 -61 18 c-34 10 -200 61 -369 112 -169 52 -311 94 -315
95 -9 1 134 36 175 43 18 3 79 17 135 30 171 41 421 98 453 103 17 3 32 7 34
9 19 19 69 -11 229 -133z m-1564 -196 c57 -32 80 -69 82 -130 4 -96 -49 -157
-142 -165 -100 -8 -174 62 -171 163 5 119 129 190 231 132z m-936 -280 c-18
-18 -81 -85 -141 -148 -59 -64 -126 -136 -150 -160 -23 -25 -98 -105 -167
-178 -69 -74 -151 -161 -183 -195 l-58 -61 6 -70 c3 -38 7 -79 9 -90 2 -11 7
-49 11 -85 3 -36 10 -94 15 -130 5 -36 12 -92 15 -125 3 -33 8 -67 10 -75 2
-8 7 -48 10 -89 4 -41 8 -82 10 -91 2 -9 6 -41 10 -71 3 -30 10 -88 15 -129 5
-41 12 -100 15 -130 6 -55 9 -76 20 -163 l6 -47 -109 39 c-893 318 -1584 1009
-1902 1899 -39 109 -39 112 -17 107 27 -6 438 -105 607 -146 69 -17 132 -32
140 -34 8 -2 35 -8 60 -15 25 -7 52 -13 60 -15 8 -2 83 -19 165 -39 83 -21
206 -50 275 -67 142 -34 179 -43 234 -58 38 -10 57 -3 475 165 240 96 445 179
456 184 33 16 119 49 128 49 4 1 -7 -14 -25 -32z m1557 -13 c66 -20 175 -52
242 -72 l122 -36 70 -180 c39 -100 116 -298 171 -441 56 -143 135 -346 176
-452 63 -159 73 -195 64 -212 -6 -12 -14 -21 -18 -21 -4 0 -19 -11 -34 -25
-79 -73 -310 -234 -458 -318 -130 -75 -424 -208 -481 -219 -10 -2 -75 72 -190
217 -95 121 -210 265 -254 321 -44 56 -93 118 -110 139 -80 102 -207 263 -225
283 -11 13 -34 44 -52 68 l-32 45 54 217 c30 119 55 219 55 222 1 3 5 24 9 48
9 47 9 47 86 29 65 -15 175 -14 245 2 174 41 331 188 387 362 16 52 26 68 37
65 9 -3 70 -22 136 -42z m-1306 -460 c-28 -115 -52 -216 -54 -224 -2 -8 -18
-71 -35 -140 -18 -69 -34 -137 -37 -152 -3 -23 39 -81 287 -395 161 -202 304
-384 320 -403 148 -186 250 -316 250 -322 0 -5 -10 -8 -22 -9 -13 0 -30 -2
-38 -4 -67 -13 -231 -36 -305 -41 -170 -13 -508 -7 -604 11 -39 7 -137 18
-143 17 -5 -1 -9 4 -10 10 0 7 -2 18 -3 23 -1 6 -5 42 -9 80 -5 39 -10 78 -11
87 -2 9 -7 48 -10 85 -4 37 -9 76 -10 85 -2 9 -7 48 -10 85 -4 37 -9 75 -10
84 -3 16 -7 45 -25 204 -6 50 -13 106 -15 125 -3 19 -7 53 -9 75 -3 22 -12
100 -21 174 l-17 133 34 36 c18 20 63 68 100 107 36 38 75 80 85 91 10 12 75
81 144 155 70 74 148 157 175 186 27 28 50 50 51 49 2 -2 -20 -97 -48 -212z"/>
</g>
</svg>
