<svg width="48" height="48" viewBox="0 0 48 48" fill="none" xmlns="http://www.w3.org/2000/svg">
<path d="M4 24C4 14.5719 4 9.85786 6.92894 6.92894C9.85786 4 14.5719 4 24 4C33.428 4 38.1422 4 41.071 6.92894C44 9.85786 44 14.5719 44 24C44 33.428 44 38.1422 41.071 41.071C38.1422 44 33.428 44 24 44C14.5719 44 9.85786 44 6.92894 41.071C4 38.1422 4 33.428 4 24Z" stroke="#FEFEFE" stroke-opacity="0.7" stroke-width="3"/>
<path d="M34 30H29H24" stroke="#FEFEFE" stroke-opacity="0.7" stroke-width="3" stroke-linecap="round"/>
<path d="M14 20L14.4688 20.3906C17.0322 22.5268 18.3139 23.5948 18.3139 25C18.3139 26.4052 17.0322 27.4732 14.4688 29.6094L14 30" stroke="#FEFEFE" stroke-opacity="0.7" stroke-width="3" stroke-linecap="round"/>
</svg>
