<svg width="48" height="48" viewBox="0 0 48 48" fill="none" xmlns="http://www.w3.org/2000/svg">
<g opacity="0.7">
<path d="M14 35.9966C9.64994 35.9724 7.29412 35.7794 5.75736 34.2426C4 32.4852 4 29.6568 4 24V16C4 10.3431 4 7.51472 5.75736 5.75736C7.51472 4 10.3431 4 16 4H32C37.6568 4 40.4852 4 42.2426 5.75736C44 7.51472 44 10.3431 44 16V24C44 29.6568 44 32.4852 42.2426 34.2426C40.783 35.7024 38.5842 35.9496 34.6394 35.9914L33 35.9966" stroke="#FEFEFE" stroke-width="3"/>
<path d="M18 12H30" stroke="#FEFEFE" stroke-width="3" stroke-linecap="round"/>
<path d="M14 19H34" stroke="#FEFEFE" stroke-width="3" stroke-linecap="round"/>
<path d="M21.7809 27.8908C23.0595 26.8014 24.9399 26.8014 26.2183 27.8908C26.7661 28.3578 27.4473 28.64 28.1649 28.6972C29.8393 28.8308 31.1689 30.1604 31.3025 31.8348C31.3599 32.5524 31.6419 33.2336 32.1089 33.7814C33.1983 35.06 33.1983 36.9404 32.1089 38.2188C31.6419 38.7666 31.3599 39.4478 31.3025 40.1654C31.1689 41.8398 29.8393 43.1694 28.1649 43.303C27.4473 43.3604 26.7661 43.6424 26.2183 44.1094C24.9399 45.1988 23.0595 45.1988 21.7809 44.1094C21.2331 43.6424 20.5519 43.3604 19.8344 43.303C18.1599 43.1694 16.8303 41.8398 16.6967 40.1654C16.6394 39.4478 16.3573 38.7666 15.8904 38.2188C14.8009 36.9404 14.8009 35.06 15.8904 33.7814C16.3573 33.2336 16.6394 32.5524 16.6967 31.8348C16.8303 30.1604 18.1599 28.8308 19.8344 28.6972C20.5519 28.64 21.2331 28.3578 21.7809 27.8908Z" stroke="#FEFEFE" stroke-width="3"/>
<path d="M21 36.4L22.7142 38L27 34" stroke="#FEFEFE" stroke-width="3" stroke-linecap="round" stroke-linejoin="round"/>
</g>
</svg>
