<svg width="48" height="48" viewBox="0 0 48 48" fill="none" xmlns="http://www.w3.org/2000/svg">
<path d="M8 20C8 12.4575 8 8.6863 10.3431 6.34314C12.6863 4 16.4575 4 24 4C31.5424 4 35.3138 4 37.6568 6.34314C40 8.6863 40 12.4575 40 20V28C40 35.5424 40 39.3138 37.6568 41.6568C35.3138 44 31.5424 44 24 44C16.4575 44 12.6863 44 10.3431 41.6568C8 39.3138 8 35.5424 8 28V20Z" stroke="#FEFEFE" stroke-opacity="0.7" stroke-width="3"/>
<path d="M30 10H18" stroke="#FEFEFE" stroke-opacity="0.7" stroke-width="3" stroke-linecap="round"/>
<path d="M24 38C26.2091 38 28 36.2091 28 34C28 31.7909 26.2091 30 24 30C21.7909 30 20 31.7909 20 34C20 36.2091 21.7909 38 24 38Z" stroke="#FEFEFE" stroke-opacity="0.7" stroke-width="3"/>
</svg>
