<svg width="48" height="48" viewBox="0 0 48 48" fill="none" xmlns="http://www.w3.org/2000/svg">
<path d="M9.95766 19.3702C5.98588 17.7815 4 16.9871 4 16C4 15.0129 5.98588 14.2185 9.95766 12.6298L15.5746 10.3831C19.5464 8.79436 21.5322 8 24 8C26.4678 8 28.4536 8.79436 32.4254 10.3831L38.0424 12.6298C42.0142 14.2185 44 15.0129 44 16C44 16.9871 42.0142 17.7815 38.0424 19.3702L32.4254 21.617C28.4536 23.2056 26.4678 24 24 24C21.5322 24 19.5464 23.2056 15.5746 21.617L9.95766 19.3702Z" stroke="#FEFEFE" stroke-opacity="0.7" stroke-width="3"/>
<path d="M44 24C44 24 42.0142 25.7814 38.0424 27.3702L32.4254 29.617C28.4536 31.2056 26.4678 32 24 32C21.5322 32 19.5464 31.2056 15.5746 29.617L9.95766 27.3702C5.98588 25.7814 4 24 4 24" stroke="#FEFEFE" stroke-opacity="0.7" stroke-width="3" stroke-linecap="round"/>
<path d="M44 32C44 32 42.0142 33.7814 38.0424 35.3702L32.4254 37.617C28.4536 39.2056 26.4678 40 24 40C21.5322 40 19.5464 39.2056 15.5746 37.617L9.95766 35.3702C5.98588 33.7814 4 32 4 32" stroke="#FEFEFE" stroke-opacity="0.7" stroke-width="3" stroke-linecap="round"/>
</svg>
