<svg width="48" height="48" viewBox="0 0 48 48" fill="none" xmlns="http://www.w3.org/2000/svg">
<g opacity="0.7">
<path d="M26.507 38.8486C25.9212 38.2628 24.9714 38.2628 24.3856 38.8486C23.7998 39.4344 23.7998 40.3842 24.3856 40.97L26.507 38.8486ZM7.03008 23.6144C7.61588 24.2002 8.56562 24.2002 9.1514 23.6144C9.7372 23.0286 9.7372 22.0788 9.1514 21.493L7.03008 23.6144ZM22.5538 8.09074L23.6144 9.1514C23.8956 8.8701 24.0538 8.48856 24.0538 8.09074C24.0538 7.69292 23.8956 7.31138 23.6144 7.03008L22.5538 8.09074ZM39.9092 25.4462L40.97 24.3856C40.6886 24.1044 40.307 23.9462 39.9092 23.9462C39.5114 23.9462 39.13 24.1044 38.8486 24.3856L39.9092 25.4462ZM16.6721 11.8511C16.0863 12.4369 16.0863 13.3866 16.6721 13.9724C17.2578 14.5582 18.2076 14.5582 18.7934 13.9724L16.6721 11.8511ZM34.0276 29.2066C33.4418 29.7924 33.4418 30.7422 34.0276 31.328C34.6134 31.9138 35.5632 31.9138 36.149 31.328L34.0276 29.2066ZM9.92268 7.03008L7.03008 9.92268L9.1514 12.044L12.044 9.1514L9.92268 7.03008ZM38.0774 40.97L40.97 38.0774L38.8486 35.956L35.956 38.8486L38.0774 40.97ZM24.3856 40.97C25.7192 42.3036 26.8238 43.4126 27.8162 44.1698C28.8434 44.9534 29.9244 45.5 31.2314 45.5V42.5C30.844 42.5 30.3962 42.3648 29.636 41.7848C28.8412 41.1784 27.9006 40.2422 26.507 38.8486L24.3856 40.97ZM35.956 38.8486C34.5624 40.2422 33.6218 41.1784 32.827 41.7848C32.0668 42.3648 31.6188 42.5 31.2314 42.5V45.5C32.5386 45.5 33.6196 44.9534 34.6466 44.1698C35.639 43.4126 36.7438 42.3036 38.0774 40.97L35.956 38.8486ZM7.03008 9.92268C5.69648 11.2563 4.58734 12.3609 3.83016 13.3533C3.04656 14.3804 2.5 15.4615 2.5 16.7685H5.5C5.5 16.3811 5.63522 15.9332 6.21522 15.1731C6.82162 14.3783 7.75784 13.4376 9.1514 12.044L7.03008 9.92268ZM9.1514 21.493C7.75784 20.0994 6.82162 19.1587 6.21522 18.364C5.63522 17.6038 5.5 17.1559 5.5 16.7685H2.5C2.5 18.0756 3.04656 19.1567 3.83016 20.1838C4.58734 21.1762 5.69648 22.2808 7.03008 23.6144L9.1514 21.493ZM23.6144 7.03008C22.2808 5.69648 21.1762 4.58734 20.1838 3.83016C19.1567 3.04656 18.0756 2.5 16.7685 2.5V5.5C17.1559 5.5 17.6038 5.63522 18.364 6.21522C19.1588 6.82162 20.0994 7.75784 21.493 9.1514L23.6144 7.03008ZM12.044 9.1514C13.4376 7.75784 14.3783 6.82162 15.1731 6.21522C15.9332 5.63524 16.3811 5.5 16.7685 5.5V2.5C15.4615 2.5 14.3804 3.04656 13.3533 3.83016C12.3609 4.58734 11.2563 5.69648 9.92268 7.03008L12.044 9.1514ZM38.8486 26.507C40.2422 27.9006 41.1784 28.8412 41.7848 29.636C42.3648 30.3962 42.5 30.844 42.5 31.2314H45.5C45.5 29.9244 44.9534 28.8434 44.1698 27.8162C43.4126 26.8238 42.3036 25.7192 40.97 24.3856L38.8486 26.507ZM40.97 38.0774C42.3036 36.7438 43.4126 35.639 44.1698 34.6466C44.9534 33.6196 45.5 32.5386 45.5 31.2314H42.5C42.5 31.6188 42.3648 32.0668 41.7848 32.827C41.1784 33.6218 40.2422 34.5624 38.8486 35.956L40.97 38.0774ZM21.493 7.03008L16.6721 11.8511L18.7934 13.9724L23.6144 9.1514L21.493 7.03008ZM38.8486 24.3856L34.0276 29.2066L36.149 31.328L40.97 26.507L38.8486 24.3856Z" fill="#FEFEFE"/>
<path d="M8.39584 43.3564L10 42.8216L14.9584 41.1688C16.507 40.6526 17.2814 40.3946 18.01 40.0474C18.8694 39.6378 19.6816 39.1358 20.4324 38.5502C21.0688 38.0538 21.6458 37.4766 22.8002 36.3224L39.8426 19.2799L41.6964 17.4261C44.7678 14.3547 44.7678 9.37496 41.6964 6.30357C38.625 3.23215 33.6452 3.23215 30.5738 6.30357L28.7202 8.15733L11.6776 25.1998C10.5233 26.3542 9.94616 26.9312 9.4498 27.5676C8.86426 28.3184 8.36228 29.1306 7.95268 29.99C7.60546 30.7186 7.34736 31.493 6.83112 33.0416L5.17834 38L4.64362 39.6042M8.39584 43.3564L6.79168 43.8912C6.02956 44.1452 5.18932 43.9468 4.62126 43.3788C4.0532 42.8106 3.85486 41.9704 4.1089 41.2084L4.64362 39.6042M8.39584 43.3564L4.64362 39.6042" stroke="#FEFEFE" stroke-width="3"/>
<path d="M28.7207 8.15723C28.7207 8.15723 28.9525 12.0965 32.4283 15.5723C35.9041 19.0481 39.8433 19.2798 39.8433 19.2798" stroke="#FEFEFE" stroke-width="3"/>
</g>
</svg>
