<svg width="48" height="48" viewBox="0 0 48 48" fill="none" xmlns="http://www.w3.org/2000/svg">
<g opacity="0.7">
<path d="M18 44H30" stroke="#FEFEFE" stroke-width="3" stroke-linecap="round"/>
<path d="M24 44V14" stroke="#FEFEFE" stroke-width="3" stroke-linecap="round"/>
<path d="M24.0007 14C26.6265 14 28.8585 12.3131 29.6719 9.96378C30.0333 8.92 29.1051 8 28.0007 8H20.0007C18.896 8 17.968 8.92 18.3293 9.96378C19.1427 12.3131 21.3747 14 24.0007 14Z" stroke="#FEFEFE" stroke-width="3"/>
<path d="M20 8C20 5.79086 21.7908 4 24 4C26.2092 4 28 5.79086 28 8" stroke="#FEFEFE" stroke-width="3"/>
<path d="M24 36V33.8736C24 31.3108 22.8202 28.8934 20.807 27.331L13.0436 21.7818M13.0436 21.7818C13.0002 21.8416 12.9555 21.9008 12.9096 21.9596C11.2473 24.0876 8.4796 24.8188 6.0779 23.9774C5.01082 23.6036 4.8594 22.264 5.5586 21.3688M13.0436 21.7818C14.574 19.6729 14.592 16.8859 13.258 14.7859C12.6484 13.8264 11.322 13.9909 10.6228 14.886M5.5586 21.3688L10.6228 14.886M5.5586 21.3688C3.78432 19.9579 3.47964 17.3628 4.87808 15.5726C6.2765 13.7824 8.8485 13.475 10.6228 14.886" stroke="#FEFEFE" stroke-width="3" stroke-linecap="round"/>
<path d="M24 36V33.8736C24 31.3108 25.1798 28.8934 27.193 27.331L34.9564 21.7818M34.9564 21.7818C34.9998 21.8416 35.0444 21.9008 35.0904 21.9596C36.7526 24.0876 39.5204 24.8188 41.9222 23.9774C42.9892 23.6036 43.1406 22.264 42.4414 21.3688M34.9564 21.7818C33.426 19.6729 33.408 16.8859 34.742 14.7859C35.3516 13.8264 36.678 13.9909 37.3772 14.886M42.4414 21.3688L37.3772 14.886M42.4414 21.3688C44.2156 19.9579 44.5204 17.3628 43.122 15.5726C41.7234 13.7824 39.1514 13.475 37.3772 14.886" stroke="#FEFEFE" stroke-width="3" stroke-linecap="round"/>
</g>
</svg>
