<svg width="24" height="24" viewBox="0 0 24 24" fill="none" xmlns="http://www.w3.org/2000/svg">
<path fill-rule="evenodd" clip-rule="evenodd" d="M12 1C5.92487 1 1 5.92487 1 12C1 18.0751 5.92487 23 12 23C18.0751 23 23 18.0751 23 12C23 5.92487 18.0751 1 12 1ZM3 12C3 7.02944 7.02944 3 12 3C13.1676 3 14.3955 3.794 15.3851 5.44343C16.3629 7.07295 17 9.38866 17 12C17 14.6113 16.3629 16.9271 15.3851 18.5566C14.3955 20.206 13.1676 21 12 21C7.02944 21 3 16.9706 3 12Z" fill="#FEFEFE"/>
<path fill-rule="evenodd" clip-rule="evenodd" d="M10 7C10 6.44772 10.4477 6 11 6H11.009C11.5613 6 12.009 6.44772 12.009 7C12.009 7.55228 11.5613 8 11.009 8H11C10.4477 8 10 7.55228 10 7Z" fill="#FEFEFE"/>
<path fill-rule="evenodd" clip-rule="evenodd" d="M6.25 14.5C6.25 13.2574 7.25736 12.25 8.5 12.25C9.74264 12.25 10.75 13.2574 10.75 14.5C10.75 15.7426 9.74264 16.75 8.5 16.75C7.25736 16.75 6.25 15.7426 6.25 14.5Z" fill="#FEFEFE"/>
</svg>
