<svg width="1280" height="126" viewBox="0 0 1280 126" fill="none" xmlns="http://www.w3.org/2000/svg">
<path d="M1260.8 3.73916e-06L73.4118 0H19.2C12.4794 0 9.11905 0 6.55211 1.30792C4.29417 2.4584 2.4584 4.29417 1.30792 6.55211C0 9.11905 0 12.4794 0 19.2V106.8C0 113.521 0 116.881 1.30792 119.448C2.4584 121.706 4.29417 123.542 6.55211 124.692C9.11905 126 12.4794 126 19.1999 126H1200.64C1203.36 126 1204.72 126 1206.02 125.712C1207.16 125.456 1208.26 125.034 1209.28 124.459C1210.44 123.811 1211.45 122.901 1213.47 121.082L1273.63 67.033C1275.98 64.9263 1277.15 63.873 1277.99 62.6093C1278.74 61.4893 1279.29 60.252 1279.62 58.9491C1280 57.479 1280 55.9029 1280 52.7507V19.2C1280 12.4794 1280 9.11906 1278.69 6.55212C1277.54 4.29417 1275.71 2.45841 1273.45 1.30793C1270.88 3.7709e-06 1267.52 3.76032e-06 1260.8 3.73916e-06Z" fill="#FEFEFE"/>
<path d="M1260.8 3.73916e-06L73.4118 0H19.2C12.4794 0 9.11905 0 6.55211 1.30792C4.29417 2.4584 2.4584 4.29417 1.30792 6.55211C0 9.11905 0 12.4794 0 19.2V106.8C0 113.521 0 116.881 1.30792 119.448C2.4584 121.706 4.29417 123.542 6.55211 124.692C9.11905 126 12.4794 126 19.1999 126H1200.64C1203.36 126 1204.72 126 1206.02 125.712C1207.16 125.456 1208.26 125.034 1209.28 124.459C1210.44 123.811 1211.45 122.901 1213.47 121.082L1273.63 67.033C1275.98 64.9263 1277.15 63.873 1277.99 62.6093C1278.74 61.4893 1279.29 60.252 1279.62 58.9491C1280 57.479 1280 55.9029 1280 52.7507V19.2C1280 12.4794 1280 9.11906 1278.69 6.55212C1277.54 4.29417 1275.71 2.45841 1273.45 1.30793C1270.88 3.7709e-06 1267.52 3.76032e-06 1260.8 3.73916e-06Z" fill="url(#paint0_linear_218_924)"/>
<defs>
<linearGradient id="paint0_linear_218_924" x1="-722.963" y1="63" x2="-394.343" y2="804.77" gradientUnits="userSpaceOnUse">
<stop stop-color="#4EE1F9"/>
<stop offset="0.515" stop-color="#86ED82"/>
<stop offset="1" stop-color="#BBF910"/>
</linearGradient>
</defs>
</svg>
