<svg width="1280" height="340" viewBox="0 0 1280 340" fill="none" xmlns="http://www.w3.org/2000/svg">
<g filter="url(#filter0_b_218_1074)">
<path d="M1240 0H99.6416C89.2862 0 79.3344 4.01595 71.8793 11.2032L12.2378 68.7019C4.41769 76.241 0 86.6364 0 97.4988V300C0 322.091 17.9086 340 40 340H1196.5H1240C1262.09 340 1280 322.091 1280 300V40C1280 17.9086 1262.09 0 1240 0Z" fill="#1A4A4B" fill-opacity="0.1"/>
<path d="M99.6416 0.5H1240C1261.82 0.5 1279.5 18.1848 1279.5 40V300C1279.5 321.815 1261.82 339.5 1240 339.5H1196.5H40C18.1847 339.5 0.5 321.815 0.5 300V97.4988C0.5 86.7721 4.86247 76.5068 12.5848 69.0619L72.2264 11.5631C79.5882 4.46575 89.4156 0.5 99.6416 0.5Z" stroke="#FEFEFE" stroke-opacity="0.1"/>
</g>
<mask id="mask0_218_1074" style="mask-type:alpha" maskUnits="userSpaceOnUse" x="0" y="0" width="1280" height="340">
<path d="M1240 0H99.6416C89.2862 0 79.3344 4.01595 71.8793 11.2032L12.2378 68.7019C4.41769 76.241 0 86.6364 0 97.4988V300C0 322.091 17.9086 340 40 340H1196.5H1240C1262.09 340 1280 322.091 1280 300V40C1280 17.9086 1262.09 0 1240 0Z" fill="white"/>
</mask>
<g mask="url(#mask0_218_1074)">
<g filter="url(#filter1_f_218_1074)">
<circle cx="1243.5" cy="515.5" r="285.5" fill="#57E6AA" fill-opacity="0.2"/>
</g>
<g filter="url(#filter2_f_218_1074)">
<circle cx="30.5" cy="-152.5" r="252.5" fill="#57E6AA" fill-opacity="0.2"/>
</g>
<g opacity="0.1">
<path opacity="0.6" d="M1936.33 630.668C1936.33 877.843 1735.83 1078.22 1488.5 1078.22C1241.17 1078.22 1040.67 877.843 1040.67 630.668C1040.67 383.493 1241.17 183.117 1488.5 183.117C1735.83 183.117 1936.33 383.493 1936.33 630.668Z" stroke="url(#paint0_linear_218_1074)"/>
<path opacity="0.6" d="M2008.97 630.668C2008.97 917.963 1775.95 1150.86 1488.5 1150.86C1201.05 1150.86 968.029 917.963 968.029 630.668C968.029 343.374 1201.05 110.476 1488.5 110.476C1775.95 110.476 2008.97 343.374 2008.97 630.668Z" stroke="url(#paint1_linear_218_1074)"/>
<path d="M2076.62 630.391C2076.62 954.895 1813.31 1217.96 1488.5 1217.96C1163.69 1217.96 900.379 954.895 900.379 630.391C900.379 305.887 1163.69 42.8242 1488.5 42.8242C1813.31 42.8242 2076.62 305.887 2076.62 630.391Z" stroke="url(#paint2_linear_218_1074)"/>
<path d="M2141.5 630.668C2141.5 990.85 1849.14 1282.84 1488.5 1282.84C1127.86 1282.84 835.5 990.85 835.5 630.668C835.5 270.486 1127.86 -21.5 1488.5 -21.5C1849.14 -21.5 2141.5 270.486 2141.5 630.668Z" stroke="url(#paint3_linear_218_1074)"/>
</g>
<g opacity="0.1">
<path opacity="0.6" d="M537.328 628.668C537.328 875.843 336.829 1076.22 89.5001 1076.22C-157.829 1076.22 -358.328 875.843 -358.328 628.668C-358.328 381.493 -157.829 181.117 89.5001 181.117C336.829 181.117 537.328 381.493 537.328 628.668Z" stroke="url(#paint4_linear_218_1074)"/>
<path opacity="0.6" d="M609.969 628.668C609.969 915.963 376.947 1148.86 89.4994 1148.86C-197.949 1148.86 -430.971 915.963 -430.971 628.668C-430.971 341.374 -197.949 108.476 89.4994 108.476C376.947 108.476 609.969 341.374 609.969 628.668Z" stroke="url(#paint5_linear_218_1074)"/>
<path d="M677.622 628.391C677.622 952.895 414.311 1215.96 89.5002 1215.96C-235.311 1215.96 -498.621 952.895 -498.621 628.391C-498.621 303.887 -235.311 40.8242 89.5002 40.8242C414.311 40.8242 677.622 303.887 677.622 628.391Z" stroke="url(#paint6_linear_218_1074)"/>
<path d="M742.5 628.668C742.5 988.85 450.143 1280.84 89.5 1280.84C-271.143 1280.84 -563.5 988.85 -563.5 628.668C-563.5 268.486 -271.143 -23.5 89.5 -23.5C450.143 -23.5 742.5 268.486 742.5 628.668Z" stroke="url(#paint7_linear_218_1074)"/>
</g>
</g>
<defs>
<filter id="filter0_b_218_1074" x="-300" y="-300" width="1880" height="940" filterUnits="userSpaceOnUse" color-interpolation-filters="sRGB">
<feFlood flood-opacity="0" result="BackgroundImageFix"/>
<feGaussianBlur in="BackgroundImageFix" stdDeviation="150"/>
<feComposite in2="SourceAlpha" operator="in" result="effect1_backgroundBlur_218_1074"/>
<feBlend mode="normal" in="SourceGraphic" in2="effect1_backgroundBlur_218_1074" result="shape"/>
</filter>
<filter id="filter1_f_218_1074" x="697.6" y="-30.4" width="1091.8" height="1091.8" filterUnits="userSpaceOnUse" color-interpolation-filters="sRGB">
<feFlood flood-opacity="0" result="BackgroundImageFix"/>
<feBlend mode="normal" in="SourceGraphic" in2="BackgroundImageFix" result="shape"/>
<feGaussianBlur stdDeviation="130.2" result="effect1_foregroundBlur_218_1074"/>
</filter>
<filter id="filter2_f_218_1074" x="-452" y="-635" width="965" height="965" filterUnits="userSpaceOnUse" color-interpolation-filters="sRGB">
<feFlood flood-opacity="0" result="BackgroundImageFix"/>
<feBlend mode="normal" in="SourceGraphic" in2="BackgroundImageFix" result="shape"/>
<feGaussianBlur stdDeviation="115" result="effect1_foregroundBlur_218_1074"/>
</filter>
<linearGradient id="paint0_linear_218_1074" x1="1015.32" y1="337.597" x2="1936.79" y2="502.212" gradientUnits="userSpaceOnUse">
<stop stop-color="white"/>
<stop offset="0.259703" stop-color="white" stop-opacity="0"/>
<stop offset="0.496475" stop-color="white" stop-opacity="0.7"/>
<stop offset="1" stop-color="white" stop-opacity="0.8"/>
</linearGradient>
<linearGradient id="paint1_linear_218_1074" x1="989.71" y1="193.708" x2="1939.57" y2="351.366" gradientUnits="userSpaceOnUse">
<stop stop-color="white"/>
<stop offset="0.679612" stop-color="white"/>
<stop offset="1" stop-color="white"/>
</linearGradient>
<linearGradient id="paint2_linear_218_1074" x1="867.25" y1="245.735" x2="2077.05" y2="461.928" gradientUnits="userSpaceOnUse">
<stop stop-color="white" stop-opacity="0"/>
<stop offset="0.37956" stop-color="white" stop-opacity="0.7"/>
<stop offset="0.956171" stop-color="white" stop-opacity="0"/>
</linearGradient>
<linearGradient id="paint3_linear_218_1074" x1="1024" y1="158" x2="2141.87" y2="443.754" gradientUnits="userSpaceOnUse">
<stop stop-color="white" stop-opacity="0"/>
<stop offset="0.37956" stop-color="white" stop-opacity="0.7"/>
<stop offset="0.956171" stop-color="white" stop-opacity="0"/>
</linearGradient>
<linearGradient id="paint4_linear_218_1074" x1="-383.68" y1="335.597" x2="537.793" y2="500.212" gradientUnits="userSpaceOnUse">
<stop stop-color="white" stop-opacity="0"/>
<stop offset="0.351293" stop-color="white" stop-opacity="0.7"/>
<stop offset="0.834237" stop-color="white" stop-opacity="0"/>
</linearGradient>
<linearGradient id="paint5_linear_218_1074" x1="-460.349" y1="288.082" x2="610.434" y2="479.354" gradientUnits="userSpaceOnUse">
<stop stop-color="white" stop-opacity="0"/>
<stop offset="0.351293" stop-color="white" stop-opacity="0.7"/>
<stop offset="0.834237" stop-color="white" stop-opacity="0"/>
</linearGradient>
<linearGradient id="paint6_linear_218_1074" x1="-531.75" y1="243.735" x2="678.051" y2="459.928" gradientUnits="userSpaceOnUse">
<stop stop-color="white" stop-opacity="0"/>
<stop offset="0.351293" stop-color="white" stop-opacity="0.7"/>
<stop offset="0.834237" stop-color="white" stop-opacity="0"/>
</linearGradient>
<linearGradient id="paint7_linear_218_1074" x1="-600.225" y1="201.757" x2="742.894" y2="441.853" gradientUnits="userSpaceOnUse">
<stop stop-color="white" stop-opacity="0"/>
<stop offset="0.351293" stop-color="white" stop-opacity="0.7"/>
<stop offset="0.834237" stop-color="white" stop-opacity="0"/>
</linearGradient>
</defs>
</svg>
